<?xml version="1.0" encoding="UTF-8"?>
<svg id="Calque_1" data-name="Calque 1" xmlns="http://www.w3.org/2000/svg" width="210.26mm" height="101.51mm" viewBox="0 0 596 287.76">
  <defs>
    <style>
      .cls-1 {
        fill: #12100b;
      }
    </style>
  </defs>
  <path class="cls-1" d="M29,167v36H0v-113h38.03c27.41,0,46.42,12.86,46.42,38.43s-19.01,38.57-46.42,38.57h-9.03ZM28,114v29h10.45c8.87,0,15.69-4.28,15.69-14.58s-6.97-14.42-15.85-14.42h-10.3Z"/>
  <rect class="cls-1" x="93" y="90" width="29" height="113"/>
  <path class="cls-1" d="M196.49,205.43c-35.89,0-60.23-25.83-60.23-58.89s24.65-58.89,59.15-58.89c16.33,0,28.19,3.93,35.59,7.56v26.3c-7.1-3.31-18.06-7.56-33.19-7.56-21.3,0-33.34,15.12-33.34,32.59s11.88,32.91,31.95,32.91c4.01,0,8.49-.63,11.57-1.42v-28.03h27v46.93c-10.47,5.35-24.95,8.5-38.51,8.5Z"/>
  <path class="cls-1" d="M294.32,88h1.42l56.39,115h-30.6l-7.88-17h-37.41l-7.72,17h-30.6l56.4-115ZM305.82,167c-3.94-8.97-8.51-20.16-10.71-27.09-1.58,3.78-7.72,19.85-10.87,27.09h21.58Z"/>
  <polygon class="cls-1" points="359 203 359 90 388 90 388 179 429 179 429 203 359 203"/>
  <polygon class="cls-1" points="439 203 439 90 468 90 468 179 509 179 509 203 439 203"/>
  <polygon class="cls-1" points="519 203 519 90 594 90 594 114 548 114 548 134 587 134 587 157 548 157 548 179 596 179 596 203 519 203"/>
  <path class="cls-1" d="M133,56V1h8.23c3.07,0,5.29.68,6.67,2.04s2.14,3.6,2.27,6.74c.09,3.01.14,5.71.14,8.1s-.05,4.86-.14,7.39c-.13,3.12-.9,5.35-2.29,6.71s-3.62,2.03-6.69,2.03h-3.2v22h-5ZM138,30h3.74c1.54,0,2.66-.36,3.35-1.09.69-.73,1.07-1.88,1.14-3.47.07-1.79.11-3.56.14-5.32.02-1.76.02-3.52,0-5.27-.03-1.76-.07-3.53-.14-5.33-.07-1.56-.44-2.71-1.12-3.43s-1.79-1.09-3.33-1.09h-3.78v25Z"/>
  <path class="cls-1" d="M157.05,55L162.93,0h8.53l5.84,55h-4.62l-1.45-16h-8.1l-1.41,16h-4.66ZM163.56,35h7.23l-1.08-12.11-1.55-18.89h-1.94l-1.56,18.93-1.1,12.07Z"/>
  <path class="cls-1" d="M186,55V0h8.35c3.11,0,5.37.69,6.77,2.07s2.17,3.66,2.3,6.84c.07,2.04.11,3.97.14,5.79.02,1.82.02,3.58,0,5.29-.03,1.7-.07,3.41-.14,5.1-.07,2.23-.46,4-1.17,5.31-.71,1.32-1.81,2.25-3.3,2.8l5.53,21.79h-5l-5.05-21h-3.44v21h-5ZM190,30h3.82c1.58,0,2.71-.37,3.42-1.11.7-.74,1.1-1.91,1.16-3.5.07-1.83.11-3.68.14-5.57.02-1.89.02-3.77,0-5.64-.03-1.87-.07-3.72-.14-5.55-.07-1.6-.45-2.76-1.15-3.5s-1.83-1.11-3.4-1.11h-3.85v26Z"/>
  <rect class="cls-1" x="213" width="5" height="55"/>
  <path class="cls-1" d="M236.74,56.36c-3.16,0-5.43-.7-6.81-2.11-1.38-1.41-2.15-3.72-2.28-6.95-.02-1.42-.03-2.71-.03-3.88s.01-2.34.03-3.52c.03-1.18.06-2.48.1-3.9h4.36c-.09,2.04-.14,4.06-.14,6.08s.05,3.98.14,5.91c.07,1.56.45,2.69,1.17,3.4.71.71,1.85,1.06,3.44,1.06s2.59-.35,3.26-1.06c.67-.71,1.04-1.84,1.13-3.4.07-1.28.11-2.43.13-3.45.03-1.02.03-2.06,0-3.13-.02-1.06-.07-2.32-.13-3.75-.05-1.7-.28-3.12-.71-4.28s-1.3-1.9-2.63-2.25l-3.57-.93c-1.76-.43-3.12-1.09-4.05-1.97-.94-.88-1.58-2.04-1.94-3.49s-.57-3.21-.63-5.32c-.02-1.49-.03-3.11-.02-4.87.01-1.76.03-3.47.05-5.12.07-2.13.4-3.85,1-5.16.59-1.32,1.55-2.28,2.87-2.88,1.32-.61,3.06-.91,5.24-.91,3.02,0,5.2.7,6.56,2.09,1.35,1.4,2.08,3.71,2.2,6.94.05,1.26.06,2.81.05,4.65-.01,1.84-.05,3.79-.12,5.85h-4.39c.07-1.87.11-3.74.12-5.61.01-1.86-.02-3.72-.09-5.58-.05-1.56-.42-2.69-1.11-3.4-.7-.71-1.79-1.07-3.28-1.07s-2.67.36-3.33,1.07c-.67.71-1.04,1.84-1.13,3.4-.09,1.74-.13,3.49-.12,5.27.01,1.77.05,3.55.12,5.34.05,2.04.29,3.57.72,4.6.43,1.03,1.34,1.71,2.71,2.03l3.36.83c1.81.41,3.19,1.07,4.14,1.99.95.91,1.61,2.1,1.98,3.55.37,1.45.57,3.2.62,5.24.04,1.42.07,2.62.07,3.58s0,1.92-.02,2.83c-.02.92-.04,1.99-.09,3.23-.11,3.23-.86,5.54-2.23,6.95s-3.61,2.11-6.7,2.11Z"/>
  <rect class="cls-1" x="273" y="23" width="10" height="10"/>
  <polygon class="cls-1" points="310 55 310 0 326 0 326 4 315 4 315 26 325 26 325 30 315 30 315 55 310 55"/>
  <path class="cls-1" d="M334,55V0h8.35c3.11,0,5.37.69,6.77,2.07s2.17,3.66,2.3,6.84c.07,2.04.11,3.97.14,5.79.02,1.82.02,3.58,0,5.29-.03,1.7-.07,3.41-.14,5.1-.07,2.23-.46,4-1.17,5.31-.71,1.32-1.81,2.25-3.3,2.8l5.53,21.79h-4.66l-5.05-21h-3.78v21h-5ZM339,30h3.82c1.58,0,2.71-.37,3.42-1.11.7-.74,1.1-1.91,1.16-3.5.07-1.83.11-3.68.14-5.57.02-1.89.02-3.77,0-5.64-.03-1.87-.07-3.72-.14-5.55-.07-1.6-.45-2.76-1.15-3.5s-1.83-1.11-3.4-1.11h-3.85v26Z"/>
  <path class="cls-1" d="M359.48,55l5.88-55h8.53l5.84,55h-4.62l-1.45-16h-8.1l-1.41,16h-4.66ZM365.99,35h7.23l-1.08-12.11-1.55-18.89h-1.94l-1.56,18.93-1.1,12.07Z"/>
  <polygon class="cls-1" points="388 55 388 0 395.64 0 398.65 17.47 403.25 51 404.78 51 404 19.51 404 0 409 0 409 55 400.01 55 396.67 35.22 392.87 4 391.27 4 392 34.36 392.27 55 388 55"/>
  <path class="cls-1" d="M428.01,56.29c-3.13,0-5.37-.71-6.73-2.11-1.36-1.4-2.07-3.7-2.14-6.9-.07-3.22-.11-6.39-.14-9.52-.02-3.13-.03-6.25-.03-9.35s.01-6.23.03-9.37c.03-3.14.07-6.32.14-9.54.05-2.97.76-5.2,2.14-6.7,1.38-1.49,3.6-2.24,6.67-2.24s5.39.69,6.78,2.07c1.4,1.38,2.15,3.69,2.27,6.9.02.87.03,1.96.03,3.27s-.01,2.63-.03,3.94c-.03,1.32-.05,2.41-.07,3.27h-4.52c.02-1.16.04-2.38.05-3.67s.02-2.56.02-3.86-.01-2.51-.03-3.65c-.03-1.62-.39-2.77-1.08-3.44-.7-.67-1.83-1.01-3.41-1.01-1.46,0-2.53.34-3.19,1.01-.66.67-1.02,1.82-1.07,3.44-.07,3.38-.12,6.69-.15,9.92-.03,3.23-.05,6.45-.05,9.63s.02,6.39.05,9.63c.04,3.23.09,6.55.15,9.95.05,1.58.41,2.71,1.08,3.41.67.69,1.75,1.05,3.24,1.05,1.64,0,2.83-.35,3.56-1.05.73-.7,1.11-1.83,1.13-3.41.02-1.26.03-2.57.03-3.94s-.01-2.74-.03-4.11c-.03-1.37-.05-2.67-.07-3.91h4.56c.07,1.95.11,3.82.12,5.64.01,1.82,0,3.7-.05,5.64-.11,3.2-.89,5.5-2.31,6.9-1.43,1.41-3.74,2.11-6.94,2.11Z"/>
  <polygon class="cls-1" points="447 55 447 0 462 0 462 4 452 4 452 26 462 26 462 30 452 30 452 52 462 52 462 55 447 55"/>
  <polygon class="cls-1" points="61 275 80 275 80 278 57 278 57 246 61 246 61 275"/>
  <rect class="cls-1" x="86" y="246" width="4" height="32"/>
  <path class="cls-1" d="M113.94,245.18c3.08,0,5.75.68,8,2.04,2.25,1.36,3.99,3.29,5.21,5.78,1.23,2.49,1.85,5.47,1.85,8.91s-.61,6.42-1.85,8.91c-1.23,2.5-2.97,4.42-5.21,5.79-2.25,1.36-4.92,2.04-8,2.04s-5.75-.68-8-2.04c-2.25-1.36-3.99-3.29-5.21-5.79-1.23-2.49-1.85-5.46-1.85-8.91s.61-6.42,1.85-8.91c1.23-2.49,2.97-4.42,5.21-5.78,2.25-1.36,4.92-2.04,8-2.04ZM113.94,248.87c-2.24,0-4.17.52-5.81,1.55-1.64,1.03-2.91,2.52-3.79,4.48-.89,1.96-1.33,4.29-1.33,7.02s.44,5.06,1.33,7.01c.88,1.96,2.15,3.45,3.79,4.48,1.64,1.03,3.57,1.55,5.81,1.55s4.21-.52,5.83-1.55c1.63-1.03,2.88-2.52,3.77-4.48.88-1.95,1.33-4.29,1.33-7.01s-.44-5.06-1.33-7.02c-.89-1.95-2.14-3.44-3.77-4.48-1.62-1.03-3.57-1.55-5.83-1.55ZM121.81,287.76c-1.67,0-3.25-.31-4.72-.93s-2.68-1.69-3.62-3.2-1.4-3.58-1.4-6.2l.03-.96.07-1.01,3.5.1-.07.91-.03.81c0,1.87.29,3.27.89,4.19.59.92,1.37,1.53,2.34,1.84.97.31,2.01.47,3.12.47,1.21,0,2.33-.17,3.35-.5,1.02-.33,1.84-.77,2.46-1.33l1.28,3.65c-.79.69-1.88,1.22-3.27,1.6s-2.7.57-3.91.57Z"/>
  <path class="cls-1" d="M162,246v20.38c0,4.17-1.08,7.31-3.24,9.42-2.16,2.12-5.25,3.18-9.26,3.18s-7.07-1.06-9.24-3.18-3.26-5.26-3.26-9.42v-20.38h4v19.39c0,3.38.73,5.88,2.19,7.48,1.46,1.61,3.73,2.41,6.81,2.41s5.35-.8,6.81-2.41c1.46-1.61,2.18-4.1,2.18-7.48v-19.39h3Z"/>
  <polygon class="cls-1" points="172 278 172 246 195 246 195 250 176 250 176 260 191 260 191 264 176 264 176 275 196 275 196 278 172 278"/>
  <path class="cls-1" d="M229,246v20.38c0,4.17-1.08,7.31-3.24,9.42-2.16,2.12-5.25,3.18-9.26,3.18s-7.07-1.06-9.24-3.18-3.26-5.26-3.26-9.42v-20.38h3v19.39c0,3.38.73,5.88,2.19,7.48,1.46,1.61,3.73,2.41,6.81,2.41s5.35-.8,6.81-2.41c1.46-1.61,2.18-4.1,2.18-7.48v-19.39h4Z"/>
  <path class="cls-1" d="M251.3,246c3.31,0,5.97.85,7.97,2.56,2,1.7,3,4.02,3,6.94s-1.01,5.19-3.03,6.82c-2.02,1.63-4.69,2.44-8,2.44l-.35.25h-7.91v13h-4v-32h12.3ZM251.6,261c2.41,0,4.19-.5,5.36-1.5,1.17-1,1.75-2.5,1.75-4.5s-.58-3.5-1.75-4.5c-1.17-1-2.95-1.5-5.36-1.5h-8.6v12h8.6ZM253.28,261.61l10.73,16.39h-4.67l-9.36-14.22,3.3-2.17Z"/>
  <path class="cls-1" d="M298.32,246c5.01,0,8.95,1.38,11.81,4.14,2.86,2.76,4.29,6.71,4.29,11.86s-1.43,9.09-4.29,11.86c-2.86,2.76-6.8,4.14-11.81,4.14h-10.32v-32h10.32ZM298.92,274c3.69,0,6.58-1.11,8.65-3.31,2.08-2.21,3.12-5.27,3.12-9.19s-1.04-6.99-3.12-9.19c-2.07-2.21-4.96-3.31-8.65-3.31h-6.92v25h6.92Z"/>
  <polygon class="cls-1" points="324 278 324 246 347 246 347 250 328 250 328 260 343 260 343 264 328 264 328 275 348 275 348 278 324 278"/>
  <path class="cls-1" d="M398.14,269.84c-.69,1.84-1.68,3.42-2.96,4.75-1.28,1.33-2.78,2.34-4.5,3.03-1.72.69-3.6,1.03-5.63,1.03-3.09,0-5.75-.68-8-2.04-2.25-1.36-3.99-3.29-5.21-5.79-1.23-2.49-1.85-5.46-1.85-8.91s.61-6.42,1.85-8.91c1.23-2.49,2.97-4.42,5.21-5.78,2.25-1.36,4.88-2.04,7.9-2.04,2.1,0,3.97.29,5.61.86,1.64.58,3.05,1.43,4.21,2.56,1.17,1.13,2.1,2.52,2.78,4.16l-3.89,1.82c-.72-1.87-1.77-3.29-3.12-4.25-1.36-.97-3.13-1.46-5.29-1.46s-4.14.52-5.81,1.55c-1.67,1.03-2.98,2.52-3.91,4.46s-1.4,4.28-1.4,7.04.44,5.06,1.33,7.01c.88,1.96,2.15,3.45,3.79,4.48,1.64,1.03,3.57,1.55,5.81,1.55s4.05-.55,5.66-1.65c1.61-1.1,2.77-2.75,3.5-4.95l3.94,1.48Z"/>
  <polygon class="cls-1" points="405 278 405 246 429 246 429 250 409 250 409 260 424 260 424 264 409 264 409 275 429 275 429 278 405 278"/>
  <path class="cls-1" d="M449.3,246c3.31,0,5.97.85,7.97,2.56,2,1.7,3,4.02,3,6.94s-1.01,5.19-3.03,6.82c-2.02,1.63-4.69,2.44-8,2.44l-.35.25h-7.91v13h-4v-32h12.3ZM449.6,261c2.41,0,4.19-.5,5.36-1.5,1.17-1,1.75-2.5,1.75-4.5s-.58-3.5-1.75-4.5c-1.17-1-2.95-1.5-5.36-1.5h-8.6v12h8.6ZM451.64,261.61l10.73,16.39h-4.67l-9.36-14.22,3.3-2.17Z"/>
  <rect class="cls-1" x="470" y="246" width="4" height="32"/>
  <path class="cls-1" d="M494.86,245.18c2.86,0,5.31.58,7.38,1.75,2.07,1.17,3.79,2.88,5.17,5.14l-3.3,2.56c-1.21-2.1-2.58-3.58-4.11-4.46-1.53-.87-3.37-1.31-5.54-1.31-1.73,0-3.17.25-4.31.74-1.13.49-1.96,1.14-2.48,1.94-.53.81-.79,1.71-.79,2.73,0,1.15.36,2.16,1.08,3.03.72.87,2.17,1.55,4.33,2.04l7.04,1.57c3.12.69,5.29,1.73,6.53,3.13,1.23,1.39,1.84,3.12,1.84,5.19,0,1.84-.52,3.47-1.55,4.9s-2.49,2.54-4.36,3.32c-1.87.78-4.07,1.18-6.6,1.18-2.36,0-4.44-.32-6.23-.96-1.79-.64-3.32-1.5-4.6-2.58s-2.33-2.3-3.15-3.65l3.44-2.8c.62,1.25,1.43,2.34,2.41,3.3.99.95,2.17,1.69,3.57,2.21,1.39.53,2.99.78,4.8.78,1.67,0,3.13-.2,4.36-.61,1.23-.41,2.17-1.02,2.83-1.82.66-.8.99-1.78.99-2.93,0-1.05-.35-1.99-1.03-2.83-.69-.84-1.99-1.47-3.89-1.89l-7.63-1.72c-2-.46-3.62-1.09-4.85-1.89-1.23-.8-2.12-1.76-2.66-2.86s-.82-2.29-.82-3.57c0-1.74.49-3.34,1.46-4.8.97-1.46,2.36-2.64,4.18-3.52,1.82-.89,3.98-1.33,6.47-1.33Z"/>
  <polygon class="cls-1" points="516 278 516 246 539 246 539 250 520 250 520 260 535 260 535 264 520 264 520 275 540 275 540 278 516 278"/>
</svg>